<svg xmlns="http://www.w3.org/2000/svg" width="1200" height="720" viewBox="0 0 1200 720">
  <defs>
    <linearGradient id="bg" x1="0" y1="0" x2="1" y2="1">
      <stop offset="0%" stop-color="#1f2b46" />
      <stop offset="100%" stop-color="#0e1628" />
    </linearGradient>
  </defs>
  <rect width="1200" height="720" fill="url(#bg)" />
  <g fill="none" stroke="#8de8ff" stroke-width="3" opacity="0.85">
    <path d="M180 170 L260 130 L340 170 L340 250 L260 290 L180 250 Z" />
    <path d="M420 250 L500 210 L580 250 L580 330 L500 370 L420 330 Z" />
    <path d="M660 170 L740 130 L820 170 L820 250 L740 290 L660 250 Z" />
    <path d="M900 250 L980 210 L1060 250 L1060 330 L980 370 L900 330 Z" />
  </g>
  <g stroke="#7fffd4" stroke-width="2" opacity="0.6">
    <line x1="340" y1="210" x2="420" y2="290" />
    <line x1="580" y1="290" x2="660" y2="210" />
    <line x1="820" y1="210" x2="900" y2="290" />
  </g>
  <text x="80" y="560" fill="#e8f6ff" font-family="JetBrains Mono, Consolas, monospace" font-size="44">Molecular Motif Atlas</text>
  <text x="80" y="612" fill="#a7bdd8" font-family="JetBrains Mono, Consolas, monospace" font-size="26">Substructure extraction and motif-level mapping</text>
</svg>
